<svg xmlns="http://www.w3.org/2000/svg" role="img" width="24" height="24" viewBox="0 0 24 24">
                                                                  <path fill-rule="evenodd" d="M22.444 13.5c-.82-.03-1.464-.716-1.444-1.537.02-.82.697-1.473 1.518-1.463.821.01 1.482.679 1.482 1.5-.016.844-.712 1.515-1.556 1.5zm0-6.5c-.82-.03-1.464-.716-1.444-1.537.02-.82.697-1.473 1.518-1.463C23.34 4.01 24 4.68 24 5.5c-.016.844-.712 1.515-1.556 1.5zm.112 10c.82.03 1.464.716 1.444 1.537-.02.82-.697 1.473-1.519 1.463-.82-.01-1.48-.679-1.481-1.5.017-.843.713-1.514 1.556-1.5z"></path>
                                                               </svg>