<svg xmlns="http://www.w3.org/2000/svg" width="24" height="24" viewBox="0 0 24 24">
                                             <path fill-rule="evenodd" d="M13.777 6.084l6 4c.23.153.292.464.139.693-.037.055-.084.102-.139.139l-6 4c-.23.153-.54.091-.693-.139-.055-.082-.084-.178-.084-.277V13h-1c-3.866 0-7 3.134-7 7H4v-2.5c0-5.079 3.986-9.227 9-9.487V6.5c0-.276.224-.5.5-.5.099 0 .195.03.277.084zM14 7.434V9h-.5c-4.13 0-7.57 2.944-8.34 6.848C6.564 13.541 9.102 12 12 12h2v1.566l4.599-3.066L14 7.434z"></path>
                                          </svg>